<svg width="17" height="20" viewBox="0 0 17 20" fill="none" xmlns="http://www.w3.org/2000/svg">
<path fill-rule="evenodd" clip-rule="evenodd" d="M6.875 1.375C6.875 0.614167 7.48917 0 8.25 0C9.01083 0 9.625 0.614167 9.625 1.375V2.4475C12.5033 3.07083 14.6667 5.6375 14.6667 8.70833V14.2083L16.5 16.0417V16.9583H0V16.0417L1.83333 14.2083V8.70833C1.83333 5.6375 3.99667 3.07083 6.875 2.4475V1.375ZM8.25001 4.125C10.78 4.125 12.8333 6.17833 12.8333 8.70833V15.125H3.66667V8.70833C3.66667 6.17833 5.72001 4.125 8.25001 4.125ZM6.42585 17.8842C6.42585 18.8925 7.24169 19.7083 8.25002 19.7083C9.25836 19.7083 10.0742 18.8925 10.0742 17.8842H6.42585Z" fill="white"/>
</svg>
